<svg width="17" height="18" viewBox="0 0 17 18" fill="none" xmlns="http://www.w3.org/2000/svg">
<path d="M7.5 13.1665H9.16667V8.1665H7.5V13.1665ZM8.33333 6.49984C8.56944 6.49984 8.76736 6.41998 8.92708 6.26025C9.08681 6.10053 9.16667 5.90261 9.16667 5.6665C9.16667 5.43039 9.08681 5.23248 8.92708 5.07275C8.76736 4.91303 8.56944 4.83317 8.33333 4.83317C8.09722 4.83317 7.89931 4.91303 7.73958 5.07275C7.57986 5.23248 7.5 5.43039 7.5 5.6665C7.5 5.90261 7.57986 6.10053 7.73958 6.26025C7.89931 6.41998 8.09722 6.49984 8.33333 6.49984ZM8.33333 17.3332C7.18056 17.3332 6.09722 17.1144 5.08333 16.6769C4.06944 16.2394 3.1875 15.6457 2.4375 14.8957C1.6875 14.1457 1.09375 13.2637 0.65625 12.2498C0.21875 11.2359 0 10.1526 0 8.99984C0 7.84706 0.21875 6.76373 0.65625 5.74984C1.09375 4.73595 1.6875 3.854 2.4375 3.104C3.1875 2.354 4.06944 1.76025 5.08333 1.32275C6.09722 0.885254 7.18056 0.666504 8.33333 0.666504C9.48611 0.666504 10.5694 0.885254 11.5833 1.32275C12.5972 1.76025 13.4792 2.354 14.2292 3.104C14.9792 3.854 15.5729 4.73595 16.0104 5.74984C16.4479 6.76373 16.6667 7.84706 16.6667 8.99984C16.6667 10.1526 16.4479 11.2359 16.0104 12.2498C15.5729 13.2637 14.9792 14.1457 14.2292 14.8957C13.4792 15.6457 12.5972 16.2394 11.5833 16.6769C10.5694 17.1144 9.48611 17.3332 8.33333 17.3332ZM8.33333 15.6665C10.1944 15.6665 11.7708 15.0207 13.0625 13.729C14.3542 12.4373 15 10.8609 15 8.99984C15 7.13873 14.3542 5.56234 13.0625 4.27067C11.7708 2.979 10.1944 2.33317 8.33333 2.33317C6.47222 2.33317 4.89583 2.979 3.60417 4.27067C2.3125 5.56234 1.66667 7.13873 1.66667 8.99984C1.66667 10.8609 2.3125 12.4373 3.60417 13.729C4.89583 15.0207 6.47222 15.6665 8.33333 15.6665Z" fill="black"/>
</svg>
