<svg width="15" height="16" viewBox="0 0 15 16" fill="none" xmlns="http://www.w3.org/2000/svg">
<path d="M10.75 15.5V13.25H8.5V11.75H10.75V9.5H12.25V11.75H14.5V13.25H12.25V15.5H10.75ZM1.75 14C1.3375 14 0.984375 13.8531 0.690625 13.5594C0.396875 13.2656 0.25 12.9125 0.25 12.5V3.5C0.25 3.0875 0.396875 2.73438 0.690625 2.44063C0.984375 2.14688 1.3375 2 1.75 2H2.5V0.5H4V2H8.5V0.5H10V2H10.75C11.1625 2 11.5156 2.14688 11.8094 2.44063C12.1031 2.73438 12.25 3.0875 12.25 3.5V8.075C12 8.0375 11.75 8.01875 11.5 8.01875C11.25 8.01875 11 8.0375 10.75 8.075V6.5H1.75V12.5H7C7 12.75 7.01875 13 7.05625 13.25C7.09375 13.5 7.1625 13.75 7.2625 14H1.75ZM1.75 5H10.75V3.5H1.75V5Z" fill="black"/>
</svg>
