<svg width="45" height="42" viewBox="0 0 45 42" fill="none" xmlns="http://www.w3.org/2000/svg">
<path d="M15.6981 41.8616C13.5527 41.8616 11.525 41.4495 9.61509 40.6254C7.70516 39.8012 6.03723 38.6762 4.61132 37.2503C3.18541 35.8244 2.06038 34.1565 1.23623 32.2465C0.412075 30.3366 0 28.3089 0 26.1635C0 23.9919 0.412075 21.9577 1.23623 20.0609C2.06038 18.164 3.18541 16.5026 4.61132 15.0767C6.03723 13.6508 7.70516 12.5258 9.61509 11.7016C11.525 10.8775 13.5527 10.4654 15.6981 10.4654C17.8697 10.4654 19.9039 10.8775 21.8008 11.7016C23.6976 12.5258 25.359 13.6508 26.7849 15.0767C28.2108 16.5026 29.3358 18.164 30.16 20.0609C30.9841 21.9577 31.3962 23.9919 31.3962 26.1635C31.3962 28.3089 30.9841 30.3366 30.16 32.2465C29.3358 34.1565 28.2108 35.8244 26.7849 37.2503C25.359 38.6762 23.6976 39.8012 21.8008 40.6254C19.9039 41.4495 17.8697 41.8616 15.6981 41.8616ZM15.6981 38.6435C16.3784 37.7016 16.967 36.7205 17.4641 35.7001C17.9613 34.6797 18.3668 33.5939 18.6808 32.4427H12.7155C13.0294 33.5939 13.435 34.6797 13.9321 35.7001C14.4292 36.7205 15.0179 37.7016 15.6981 38.6435ZM11.6166 38.0156C11.1457 37.1522 10.7336 36.2561 10.3804 35.3273C10.0272 34.3985 9.73283 33.437 9.49736 32.4427H4.86641C5.62516 33.7509 6.57358 34.889 7.7117 35.8571C8.84981 36.8251 10.1514 37.5446 11.6166 38.0156ZM19.7796 38.0156C21.2448 37.5446 22.5464 36.8251 23.6845 35.8571C24.8226 34.889 25.7711 33.7509 26.5298 32.4427H21.8989C21.6634 33.437 21.3691 34.3985 21.0158 35.3273C20.6626 36.2561 20.2506 37.1522 19.7796 38.0156ZM3.53208 29.3031H8.86943C8.79094 28.7799 8.73207 28.2631 8.69283 27.7529C8.65358 27.2428 8.63396 26.7129 8.63396 26.1635C8.63396 25.6141 8.65358 25.0843 8.69283 24.5741C8.73207 24.0639 8.79094 23.5472 8.86943 23.0239H3.53208C3.40126 23.5472 3.30314 24.0639 3.23774 24.5741C3.17233 25.0843 3.13962 25.6141 3.13962 26.1635C3.13962 26.7129 3.17233 27.2428 3.23774 27.7529C3.30314 28.2631 3.40126 28.7799 3.53208 29.3031ZM12.0091 29.3031H19.3872C19.4657 28.7799 19.5245 28.2631 19.5638 27.7529C19.603 27.2428 19.6226 26.7129 19.6226 26.1635C19.6226 25.6141 19.603 25.0843 19.5638 24.5741C19.5245 24.0639 19.4657 23.5472 19.3872 23.0239H12.0091C11.9306 23.5472 11.8717 24.0639 11.8325 24.5741C11.7932 25.0843 11.7736 25.6141 11.7736 26.1635C11.7736 26.7129 11.7932 27.2428 11.8325 27.7529C11.8717 28.2631 11.9306 28.7799 12.0091 29.3031ZM22.5268 29.3031H27.8641C27.995 28.7799 28.0931 28.2631 28.1585 27.7529C28.2239 27.2428 28.2566 26.7129 28.2566 26.1635C28.2566 25.6141 28.2239 25.0843 28.1585 24.5741C28.0931 24.0639 27.995 23.5472 27.8641 23.0239H22.5268C22.6053 23.5472 22.6641 24.0639 22.7034 24.5741C22.7426 25.0843 22.7623 25.6141 22.7623 26.1635C22.7623 26.7129 22.7426 27.2428 22.7034 27.7529C22.6641 28.2631 22.6053 28.7799 22.5268 29.3031ZM21.8989 19.8843H26.5298C25.7711 18.5761 24.8226 17.438 23.6845 16.4699C22.5464 15.5019 21.2448 14.7824 19.7796 14.3114C20.2506 15.1748 20.6626 16.0709 21.0158 16.9997C21.3691 17.9285 21.6634 18.89 21.8989 19.8843ZM12.7155 19.8843H18.6808C18.3668 18.7331 17.9613 17.6473 17.4641 16.6269C16.967 15.6065 16.3784 14.6254 15.6981 13.6835C15.0179 14.6254 14.4292 15.6065 13.9321 16.6269C13.435 17.6473 13.0294 18.7331 12.7155 19.8843ZM4.86641 19.8843H9.49736C9.73283 18.89 10.0272 17.9285 10.3804 16.9997C10.7336 16.0709 11.1457 15.1748 11.6166 14.3114C10.1514 14.7824 8.84981 15.5019 7.7117 16.4699C6.57358 17.438 5.62516 18.5761 4.86641 19.8843Z" fill="black"/>
<path d="M44.7199 4.0602C44.5263 3.75905 44.2897 3.50091 43.967 3.30732L38.6969 0.274265C38.0515 -0.0914217 37.2986 -0.0914217 36.6533 0.274265L31.3831 3.30732C31.0604 3.50091 30.8023 3.75905 30.6302 4.0602C30.4581 4.36135 30.3506 4.70553 30.3506 5.07122V11.0728C30.3506 11.4385 30.4581 11.7826 30.6302 12.0838C30.8023 12.385 31.0604 12.6431 31.3831 12.8367L36.6533 15.8697C36.976 16.0418 37.3201 16.1279 37.6643 16.1279C38.03 16.1279 38.3742 16.0418 38.6969 15.8697L43.967 12.8367C44.2897 12.6431 44.5263 12.385 44.7199 12.0838C44.892 11.7826 44.9781 11.4385 44.9781 11.0728V5.07122C44.9781 4.70553 44.892 4.36135 44.7199 4.0602ZM32.9319 10.7286V6.81361L36.3737 8.81413V12.7291L32.9319 10.7286ZM37.6643 6.57699L34.2871 4.61949L37.6643 2.66199L41.0631 4.61949L37.6643 6.57699ZM42.3967 10.7286L38.955 12.7291V8.81413L42.3967 6.81361V10.7286Z" fill="black"/>
</svg>
