<svg width="15" height="23" viewBox="0 0 15 23" fill="none" xmlns="http://www.w3.org/2000/svg">
<path d="M0.319444 23L0 20.1889L3.64167 10.1583C3.96111 10.4565 4.30718 10.7067 4.67986 10.909C5.05255 11.1113 5.45185 11.2657 5.87778 11.3722L2.36389 21.0194L0.319444 23ZM13.7361 23L11.6917 21.0194L8.17778 11.3722C8.6037 11.2657 9.00301 11.1113 9.37569 10.909C9.74838 10.7067 10.0944 10.4565 10.4139 10.1583L14.0556 20.1889L13.7361 23ZM7.02778 10.2222C5.96296 10.2222 5.05787 9.84954 4.3125 9.10417C3.56713 8.3588 3.19444 7.4537 3.19444 6.38889C3.19444 5.55833 3.43403 4.81829 3.91319 4.16875C4.39236 3.51921 5.00463 3.06667 5.75 2.81111V0H8.30556V2.81111C9.05093 3.06667 9.66319 3.51921 10.1424 4.16875C10.6215 4.81829 10.8611 5.55833 10.8611 6.38889C10.8611 7.4537 10.4884 8.3588 9.74305 9.10417C8.99768 9.84954 8.09259 10.2222 7.02778 10.2222ZM7.02778 7.66667C7.38981 7.66667 7.69329 7.54421 7.93819 7.29931C8.1831 7.0544 8.30556 6.75093 8.30556 6.38889C8.30556 6.02685 8.1831 5.72338 7.93819 5.47847C7.69329 5.23357 7.38981 5.11111 7.02778 5.11111C6.66574 5.11111 6.36227 5.23357 6.11736 5.47847C5.87245 5.72338 5.75 6.02685 5.75 6.38889C5.75 6.75093 5.87245 7.0544 6.11736 7.29931C6.36227 7.54421 6.66574 7.66667 7.02778 7.66667Z" fill="black"/>
</svg>
