<svg width="17" height="22" viewBox="0 0 17 22" fill="none" xmlns="http://www.w3.org/2000/svg">
<path d="M6.18352 12.2571L7.10019 9.27143L4.69066 7.33333H7.67638L8.61923 4.4L9.56209 7.33333H12.5478L10.1121 9.27143L11.0288 12.2571L8.61923 10.3976L6.18352 12.2571ZM2.33352 22V13.9071C1.67003 13.1738 1.15495 12.3357 0.788281 11.3929C0.421615 10.45 0.238281 9.44604 0.238281 8.38095C0.238281 6.04127 1.05019 4.05952 2.674 2.43571C4.29781 0.811905 6.27955 0 8.61923 0C10.9589 0 12.9407 0.811905 14.5645 2.43571C16.1883 4.05952 17.0002 6.04127 17.0002 8.38095C17.0002 9.44604 16.8169 10.45 16.4502 11.3929C16.0835 12.3357 15.5684 13.1738 14.9049 13.9071V22L8.61923 19.9048L2.33352 22ZM8.61923 14.6667C10.3653 14.6667 11.8494 14.0556 13.0716 12.8333C14.2939 11.6111 14.9049 10.127 14.9049 8.38095C14.9049 6.63492 14.2939 5.1508 13.0716 3.92857C11.8494 2.70635 10.3653 2.09524 8.61923 2.09524C6.8732 2.09524 5.38908 2.70635 4.16685 3.92857C2.94463 5.1508 2.33352 6.63492 2.33352 8.38095C2.33352 10.127 2.94463 11.6111 4.16685 12.8333C5.38908 14.0556 6.8732 14.6667 8.61923 14.6667ZM4.42876 18.8833L8.61923 17.8095L12.8097 18.8833V15.6357C12.1986 15.9849 11.5395 16.2599 10.8323 16.4607C10.1252 16.6615 9.38748 16.7619 8.61923 16.7619C7.85098 16.7619 7.11328 16.6615 6.40614 16.4607C5.699 16.2599 5.03987 15.9849 4.42876 15.6357V18.8833Z" fill="black"/>
</svg>
