<svg width="21" height="23" viewBox="0 0 21 23" fill="none" xmlns="http://www.w3.org/2000/svg">
<path d="M16.1161 9.24374L20.7207 0H12.6627L10.3604 4.6046L8.05806 0H0L4.63914 9.3013L5.11111 10.2452C4.25926 11.0856 3.6031 12.1331 3.23473 13.3073C3.01602 14.0095 2.9009 14.7578 2.9009 15.5405C2.9009 19.6617 6.23924 23 10.3604 23C11.3964 23 12.3749 22.7928 13.2613 22.4129C13.4915 22.3208 13.7102 22.2172 13.9174 22.1021C16.2427 20.8358 17.8198 18.3724 17.8198 15.5405C17.8198 13.4685 16.9795 11.5921 15.6096 10.2452L16.1161 9.24374ZM14.0325 19.2127C13.0195 20.2142 11.7993 20.7207 10.3604 20.7207C8.92142 20.7207 7.7012 20.2142 6.68819 19.2127C5.68669 18.1997 5.18018 16.9795 5.18018 15.5405C5.18018 14.1016 5.68669 12.8814 6.68819 11.8684C7.7012 10.8669 8.92142 10.3604 10.3604 10.3604C11.7993 10.3604 13.0195 10.8669 14.0325 11.8684C15.034 12.8814 15.5405 14.1016 15.5405 15.5405C15.5405 16.9795 15.034 18.1997 14.0325 19.2127ZM14.1016 2.3023H17.014L13.7332 8.86386C13.48 8.72573 13.2267 8.62212 12.985 8.53003C12.7317 8.44945 12.467 8.36887 12.2022 8.28829L11.6612 7.19469L14.1016 2.3023ZM3.74124 2.3023H6.61912L9.53153 8.11562C9.08258 8.15015 8.64515 8.24224 8.21922 8.35736C7.78178 8.48398 7.37888 8.65666 6.999 8.86386L3.74124 2.3023Z" fill="black"/>
</svg>
