<svg width="110" height="110" viewBox="0 0 110 110" fill="none" xmlns="http://www.w3.org/2000/svg">
<path d="M55 110C24.6715 110 0 85.3285 0 55C0 24.6715 24.6715 0 55 0C85.3285 0 110 24.6715 110 55C110 85.3285 85.3285 110 55 110ZM55 20.433C35.9378 20.433 20.433 35.9378 20.433 55C20.433 74.0622 35.9378 89.567 55 89.567C74.0622 89.567 89.567 74.0622 89.567 55C89.567 35.9378 74.0622 20.433 55 20.433Z" fill="#0051BA"/>
<path d="M41.1158 41.6381L54.9027 54.1322C55.202 54.4012 55.6185 54.4966 56.0046 54.3795L73.7566 49.0174C74.6156 48.7571 74.8542 47.6596 74.1861 47.0652L60.0392 34.467C59.7398 34.1981 59.319 34.107 58.9329 34.2284L41.5366 39.6946C40.6907 39.9592 40.4564 41.0438 41.1115 41.6381H41.1158Z" fill="#0051BA"/>
<path d="M52.8605 75.7669L70.7383 70.2357C71.1504 70.1055 71.4671 69.7671 71.5626 69.342L75.5407 51.4859C75.7403 50.5835 74.8986 49.7983 74.0136 50.0673L56.331 55.4076C55.9146 55.5334 55.6022 55.8718 55.5024 56.2926L51.3247 74.3396C51.1165 75.2463 51.9668 76.0402 52.8605 75.7669Z" fill="#003376"/>
<path d="M34.7305 62.2274L48.6475 75.0902C49.1855 75.5847 50.0575 75.3158 50.218 74.6043L54.5302 55.9673C54.6083 55.6333 54.4998 55.2775 54.2439 55.0476L40.1229 42.2498C39.5807 41.7596 38.713 42.0373 38.5568 42.7487L34.4485 61.3163C34.3748 61.646 34.4832 61.9888 34.7305 62.2187V62.2274Z" fill="#0064E6"/>
</svg>
