<svg width="20" height="22" viewBox="0 0 20 22" fill="none" xmlns="http://www.w3.org/2000/svg">
<path d="M15.5556 8.84184L20 0H12.2222L10 4.4044L7.77778 0H0L4.47778 8.8969L4.93333 9.7998C4.11111 10.6036 3.47778 11.6056 3.12222 12.7287C2.91111 13.4004 2.8 14.1161 2.8 14.8649C2.8 18.8068 6.02222 22 10 22C11 22 11.9444 21.8018 12.8 21.4384C13.0222 21.3504 13.2333 21.2513 13.4333 21.1411C15.6778 19.9299 17.2 17.5736 17.2 14.8649C17.2 12.8829 16.3889 11.0881 15.0667 9.7998L15.5556 8.84184ZM13.5444 18.3774C12.5667 19.3353 11.3889 19.8198 10 19.8198C8.61111 19.8198 7.43333 19.3353 6.45556 18.3774C5.48889 17.4084 5 16.2412 5 14.8649C5 13.4885 5.48889 12.3213 6.45556 11.3524C7.43333 10.3944 8.61111 9.90991 10 9.90991C11.3889 9.90991 12.5667 10.3944 13.5444 11.3524C14.5111 12.3213 15 13.4885 15 14.8649C15 16.2412 14.5111 17.4084 13.5444 18.3774ZM13.6111 2.2022H16.4222L13.2556 8.47848C13.0111 8.34635 12.7667 8.24725 12.5333 8.15916C12.2889 8.08208 12.0333 8.005 11.7778 7.92793L11.2556 6.88188L13.6111 2.2022ZM3.61111 2.2022H6.38889L9.2 7.76276C8.76667 7.7958 8.34444 7.88388 7.93333 7.99399C7.51111 8.11512 7.12222 8.28028 6.75556 8.47848L3.61111 2.2022Z" fill="#7A2B00"/>
</svg>
