<svg width="45" height="41" viewBox="0 0 45 41" fill="none" xmlns="http://www.w3.org/2000/svg">
<path d="M45 41V0H22.5V9.11111H1.19209e-06V41H45ZM40.5 36.4444H36V31.8889H40.5V36.4444ZM40.5 27.3333H36V22.7778H40.5V27.3333ZM40.5 18.2222H36V13.6667H40.5V18.2222ZM40.5 9.11111H36V4.55556H40.5V9.11111ZM31.5 36.4444H27V31.8889H31.5V36.4444ZM31.5 27.3333H27V22.7778H31.5V27.3333ZM31.5 18.2222H27V13.6667H31.5V18.2222ZM31.5 9.11111H27V4.55556H31.5V9.11111ZM22.5 36.4444H4.5V13.6667H22.5V18.2222H18V22.7778H22.5V27.3333H18V31.8889H22.5V36.4444ZM13.5 22.7778V18.2222H9V22.7778H13.5ZM13.5 31.8889V27.3333H9V31.8889H13.5Z" fill="black"/>
</svg>
