<svg width="46" height="33" viewBox="0 0 46 33" fill="none" xmlns="http://www.w3.org/2000/svg">
<path d="M34.2909 18.5625L31.3636 15.675L35.7023 11.3438L31.3636 7.06406L34.2909 4.125L38.6818 8.45625L43.0205 4.125L46 7.06406L41.6091 11.3438L46 15.675L43.0205 18.5625L38.6818 14.2828L34.2909 18.5625ZM16.7273 16.5C14.4273 16.5 12.4583 15.6922 10.8205 14.0766C9.18258 12.4609 8.36364 10.5188 8.36364 8.25C8.36364 5.98125 9.18258 4.03906 10.8205 2.42344C12.4583 0.807812 14.4273 0 16.7273 0C19.0273 0 20.9962 0.807812 22.6341 2.42344C24.272 4.03906 25.0909 5.98125 25.0909 8.25C25.0909 10.5188 24.272 12.4609 22.6341 14.0766C20.9962 15.6922 19.0273 16.5 16.7273 16.5ZM0 33V27.225C0 26.0562 0.304924 24.982 0.914773 24.0023C1.52462 23.0227 2.33485 22.275 3.34545 21.7594C5.50606 20.6938 7.70151 19.8945 9.93182 19.3617C12.1621 18.8289 14.4273 18.5625 16.7273 18.5625C19.0273 18.5625 21.2924 18.8289 23.5227 19.3617C25.753 19.8945 27.9485 20.6938 30.1091 21.7594C31.1197 22.275 31.9299 23.0227 32.5398 24.0023C33.1496 24.982 33.4545 26.0562 33.4545 27.225V33H0ZM4.18182 28.875H29.2727V27.225C29.2727 26.8469 29.1769 26.5031 28.9852 26.1938C28.7936 25.8844 28.5409 25.6437 28.2273 25.4719C26.3455 24.5437 24.4462 23.8477 22.5295 23.3836C20.6129 22.9195 18.6788 22.6875 16.7273 22.6875C14.7758 22.6875 12.8417 22.9195 10.925 23.3836C9.00833 23.8477 7.10909 24.5437 5.22727 25.4719C4.91364 25.6437 4.66098 25.8844 4.46932 26.1938C4.27765 26.5031 4.18182 26.8469 4.18182 27.225V28.875ZM16.7273 12.375C17.8773 12.375 18.8617 11.9711 19.6807 11.1633C20.4996 10.3555 20.9091 9.38437 20.9091 8.25C20.9091 7.11562 20.4996 6.14453 19.6807 5.33672C18.8617 4.52891 17.8773 4.125 16.7273 4.125C15.5773 4.125 14.5928 4.52891 13.7739 5.33672C12.9549 6.14453 12.5455 7.11562 12.5455 8.25C12.5455 9.38437 12.9549 10.3555 13.7739 11.1633C14.5928 11.9711 15.5773 12.375 16.7273 12.375Z" fill="#C62535"/>
</svg>
