<svg width="41" height="45" viewBox="0 0 41 45" fill="none" xmlns="http://www.w3.org/2000/svg">
<path d="M18.2222 39.2062V23.7937L4.55556 15.975V31.3875L18.2222 39.2062ZM22.7778 39.2062L36.4444 31.3875V15.975L22.7778 23.7937V39.2062ZM20.5 19.9125L33.9958 12.2062L20.5 4.5L7.00417 12.2062L20.5 19.9125ZM2.27778 35.325C1.55648 34.9125 0.996528 34.3687 0.597917 33.6937C0.199306 33.0187 0 32.2687 0 31.4437V13.5562C0 12.7312 0.199306 11.9812 0.597917 11.3062C0.996528 10.6312 1.55648 10.0875 2.27778 9.675L18.2222 0.61875C18.9435 0.20625 19.7028 0 20.5 0C21.2972 0 22.0565 0.20625 22.7778 0.61875L38.7222 9.675C39.4435 10.0875 40.0035 10.6312 40.4021 11.3062C40.8007 11.9812 41 12.7312 41 13.5562V31.4437C41 32.2687 40.8007 33.0187 40.4021 33.6937C40.0035 34.3687 39.4435 34.9125 38.7222 35.325L22.7778 44.3812C22.0565 44.7937 21.2972 45 20.5 45C19.7028 45 18.9435 44.7937 18.2222 44.3812L2.27778 35.325Z" fill="black"/>
</svg>
