<svg width="19" height="13" viewBox="0 0 19 13" fill="none" xmlns="http://www.w3.org/2000/svg">
<path d="M0 13V9.75C0 9.28958 0.162731 8.90365 0.488192 8.59219C0.813654 8.28073 1.2049 8.125 1.66193 8.125H4.38335C4.66033 8.125 4.92347 8.19271 5.17276 8.32812C5.42205 8.46354 5.62287 8.64635 5.77521 8.87656C6.17685 9.40469 6.67196 9.81771 7.26056 10.1156C7.84917 10.4135 8.47585 10.5625 9.14063 10.5625C9.81925 10.5625 10.4529 10.4135 11.0415 10.1156C11.6301 9.81771 12.1183 9.40469 12.506 8.87656C12.6861 8.64635 12.8973 8.46354 13.1396 8.32812C13.382 8.19271 13.6348 8.125 13.8979 8.125H16.6193C17.0902 8.125 17.4849 8.28073 17.8034 8.59219C18.122 8.90365 18.2813 9.28958 18.2813 9.75V13H12.4645V11.1516C11.9798 11.4901 11.4569 11.7474 10.896 11.9234C10.3351 12.0995 9.75 12.1875 9.14063 12.1875C8.5451 12.1875 7.96342 12.0961 7.3956 11.9133C6.82777 11.7305 6.30149 11.4698 5.81676 11.1312V13H0ZM9.14063 9.75C8.61435 9.75 8.11577 9.63151 7.64489 9.39453C7.17401 9.15755 6.7793 8.82917 6.46076 8.40937C6.22532 8.07083 5.93102 7.80339 5.57786 7.60703C5.2247 7.41068 4.84038 7.3125 4.42489 7.3125C4.72958 6.81146 5.37358 6.41536 6.35689 6.12422C7.3402 5.83307 8.26811 5.6875 9.14063 5.6875C10.0131 5.6875 10.9411 5.83307 11.9244 6.12422C12.9077 6.41536 13.5517 6.81146 13.8564 7.3125C13.4547 7.3125 13.0739 7.41068 12.7138 7.60703C12.3537 7.80339 12.0559 8.07083 11.8205 8.40937C11.5158 8.84271 11.128 9.17448 10.6571 9.40469C10.1863 9.6349 9.68075 9.75 9.14063 9.75ZM2.4929 7.3125C1.80043 7.3125 1.21183 7.07552 0.727095 6.60156C0.242365 6.1276 0 5.55208 0 4.875C0 4.18437 0.242365 3.60547 0.727095 3.13828C1.21183 2.67109 1.80043 2.4375 2.4929 2.4375C3.19922 2.4375 3.79128 2.67109 4.26909 3.13828C4.74689 3.60547 4.9858 4.18437 4.9858 4.875C4.9858 5.55208 4.74689 6.1276 4.26909 6.60156C3.79128 7.07552 3.19922 7.3125 2.4929 7.3125ZM15.7884 7.3125C15.0959 7.3125 14.5073 7.07552 14.0226 6.60156C13.5378 6.1276 13.2955 5.55208 13.2955 4.875C13.2955 4.18437 13.5378 3.60547 14.0226 3.13828C14.5073 2.67109 15.0959 2.4375 15.7884 2.4375C16.4947 2.4375 17.0867 2.67109 17.5645 3.13828C18.0423 3.60547 18.2813 4.18437 18.2813 4.875C18.2813 5.55208 18.0423 6.1276 17.5645 6.60156C17.0867 7.07552 16.4947 7.3125 15.7884 7.3125ZM9.14063 4.875C8.44815 4.875 7.85955 4.63802 7.37482 4.16406C6.89009 3.6901 6.64773 3.11458 6.64773 2.4375C6.64773 1.74687 6.89009 1.16797 7.37482 0.700781C7.85955 0.233594 8.44815 0 9.14063 0C9.84695 0 10.439 0.233594 10.9168 0.700781C11.3946 1.16797 11.6335 1.74687 11.6335 2.4375C11.6335 3.11458 11.3946 3.6901 10.9168 4.16406C10.439 4.63802 9.84695 4.875 9.14063 4.875Z" fill="black"/>
</svg>
