<svg width="20" height="17" viewBox="0 0 20 17" fill="none" xmlns="http://www.w3.org/2000/svg">
<path d="M3.45312 15.6286C3.45312 15.8486 3.62911 16.0286 3.85311 16.0286H16.1486C16.3686 16.0286 16.5486 15.8486 16.5486 15.6286V14.165H3.45312V15.6286Z" fill="black"/>
<path d="M19.8295 2.80936C19.6815 2.7094 19.4896 2.71733 19.3496 2.82534L14.0618 7.02918L10.35 0.193467C10.2139 -0.0665249 9.78999 -0.0624448 9.64999 0.193467L5.93814 7.02918L0.650388 2.82534C0.51039 2.71337 0.3184 2.7094 0.174407 2.80936C0.0264196 2.90938 -0.0335915 3.09338 0.0184295 3.26135L3.30352 13.3653H16.7003L19.9815 3.26135C20.0335 3.09338 19.9736 2.90938 19.8295 2.80936Z" fill="black"/>
</svg>
