<?xml version="1.0" encoding="UTF-8"?>
<svg id="Layer_2" data-name="Layer 2" xmlns="http://www.w3.org/2000/svg" viewBox="0 0 77.04 78.35">
  <defs>
    <style>
      .cls-1 {
        fill: #664d00;
      }

      .cls-1, .cls-2, .cls-3, .cls-4 {
        stroke-width: 0px;
      }

      .cls-2 {
        fill: #ffd313;
      }

      .cls-3 {
        fill: #ffde55;
      }

      .cls-4 {
        fill: #cea705;
      }
    </style>
  </defs>
  <g id="Layer_1-2" data-name="Layer 1">
    <path class="cls-1" d="m43.19.36L12.67,9.85c-2.73.85-4.8,3.09-5.43,5.88L.2,46.9c-.63,2.79.28,5.7,2.38,7.64l23.48,21.69c2.1,1.94,5.07,2.61,7.8,1.76l30.52-9.49c2.73-.85,4.8-3.09,5.43-5.88l7.04-31.18c.63-2.79-.28-5.7-2.38-7.64L50.99,2.12c-2.1-1.94-5.07-2.61-7.8-1.76Z"/>
    <path class="cls-2" d="m14.83,15.82l23.53,21.33c.51.46,1.22.62,1.88.42l30.3-9.15c1.47-.44,1.87-2.31.73-3.33L47.14,3.6c-.51-.46-1.23-.61-1.89-.41L15.56,12.52c-1.44.46-1.85,2.3-.73,3.32h0Z"/>
    <path class="cls-4" d="m34.88,74.08l30.52-9.44c.71-.22,1.25-.8,1.4-1.52l6.79-30.47c.34-1.54-1.1-2.88-2.61-2.42l-30.17,9.12c-.71.21-1.25.79-1.41,1.51l-7.13,30.8c-.36,1.55,1.1,2.91,2.61,2.44h0Z"/>
    <path class="cls-3" d="m3.94,50.97l23.75,21.95c.91.85,2.4.39,2.68-.82l7.36-31.8c.13-.57-.06-1.17-.49-1.57L13.14,16.88c-.92-.84-2.4-.37-2.67.86l-7.01,31.69c-.12.56.06,1.15.48,1.54Z"/>
  </g>
</svg>