<svg width="9" height="10" viewBox="0 0 9 10" fill="none" xmlns="http://www.w3.org/2000/svg">
<path d="M5.75 8C5.4 8 5.10417 7.87917 4.8625 7.6375C4.62083 7.39583 4.5 7.1 4.5 6.75C4.5 6.4 4.62083 6.10417 4.8625 5.8625C5.10417 5.62083 5.4 5.5 5.75 5.5C6.1 5.5 6.39583 5.62083 6.6375 5.8625C6.87917 6.10417 7 6.4 7 6.75C7 7.1 6.87917 7.39583 6.6375 7.6375C6.39583 7.87917 6.1 8 5.75 8ZM1 10C0.725 10 0.489583 9.90208 0.29375 9.70625C0.0979167 9.51042 0 9.275 0 9V2C0 1.725 0.0979167 1.48958 0.29375 1.29375C0.489583 1.09792 0.725 1 1 1H1.5V0H2.5V1H6.5V0H7.5V1H8C8.275 1 8.51042 1.09792 8.70625 1.29375C8.90208 1.48958 9 1.725 9 2V9C9 9.275 8.90208 9.51042 8.70625 9.70625C8.51042 9.90208 8.275 10 8 10H1ZM1 9H8V4H1V9ZM1 3H8V2H1V3Z" fill="black"/>
</svg>
