<svg width="43" height="45" viewBox="0 0 43 45" fill="none" xmlns="http://www.w3.org/2000/svg">
<path d="M30.5526 40.5H32.8158V31.5H30.5526V40.5ZM31.6842 29.25C31.986 29.25 32.25 29.1375 32.4763 28.9125C32.7026 28.6875 32.8158 28.425 32.8158 28.125C32.8158 27.825 32.7026 27.5625 32.4763 27.3375C32.25 27.1125 31.986 27 31.6842 27C31.3825 27 31.1184 27.1125 30.8921 27.3375C30.6658 27.5625 30.5526 27.825 30.5526 28.125C30.5526 28.425 30.6658 28.6875 30.8921 28.9125C31.1184 29.1375 31.3825 29.25 31.6842 29.25ZM9.05263 27H17.3697C17.7846 26.1375 18.2656 25.3312 18.8125 24.5812C19.3594 23.8312 19.9724 23.1375 20.6513 22.5H9.05263V27ZM9.05263 36H16.0118C15.8987 35.25 15.8421 34.5 15.8421 33.75C15.8421 33 15.8987 32.25 16.0118 31.5H9.05263V36ZM4.52632 45C3.28158 45 2.21601 44.5594 1.32961 43.6781C0.443202 42.7969 0 41.7375 0 40.5V4.5C0 3.2625 0.443202 2.20312 1.32961 1.32187C2.21601 0.440625 3.28158 0 4.52632 0H22.6316L36.2105 13.5V18.675C35.4939 18.45 34.7583 18.2812 34.0039 18.1687C33.2496 18.0562 32.4763 18 31.6842 18V15.75H20.3684V4.5H4.52632V40.5H17.3697C17.7846 41.3625 18.2656 42.1687 18.8125 42.9187C19.3594 43.6687 19.9724 44.3625 20.6513 45H4.52632ZM31.6842 22.5C34.8149 22.5 37.4836 23.5969 39.6901 25.7906C41.8967 27.9844 43 30.6375 43 33.75C43 36.8625 41.8967 39.5156 39.6901 41.7094C37.4836 43.9031 34.8149 45 31.6842 45C28.5535 45 25.8849 43.9031 23.6783 41.7094C21.4717 39.5156 20.3684 36.8625 20.3684 33.75C20.3684 30.6375 21.4717 27.9844 23.6783 25.7906C25.8849 23.5969 28.5535 22.5 31.6842 22.5Z" fill="black"/>
</svg>
