<svg width="15" height="18" viewBox="0 0 15 18" fill="none" xmlns="http://www.w3.org/2000/svg">
<path d="M6.66667 15.1121V9.47334L1.66667 6.61282V12.2515L6.66667 15.1121ZM8.33333 15.1121L13.3333 12.2515V6.61282L8.33333 9.47334V15.1121ZM7.5 8.05337L12.4375 5.23401L7.5 2.41465L2.5625 5.23401L7.5 8.05337ZM0.833333 13.6921C0.569444 13.5412 0.364583 13.3422 0.21875 13.0953C0.0729167 12.8483 0 12.574 0 12.2721V5.72791C0 5.42609 0.0729167 5.15169 0.21875 4.90474C0.364583 4.65779 0.569444 4.45886 0.833333 4.30794L6.66667 0.994683C6.93056 0.843768 7.20833 0.768311 7.5 0.768311C7.79167 0.768311 8.06944 0.843768 8.33333 0.994683L14.1667 4.30794C14.4306 4.45886 14.6354 4.65779 14.7813 4.90474C14.9271 5.15169 15 5.42609 15 5.72791V12.2721C15 12.574 14.9271 12.8483 14.7813 13.0953C14.6354 13.3422 14.4306 13.5412 14.1667 13.6921L8.33333 17.0054C8.06944 17.1563 7.79167 17.2317 7.5 17.2317C7.20833 17.2317 6.93056 17.1563 6.66667 17.0054L0.833333 13.6921Z" fill="#1E1E1E"/>
</svg>
