<svg width="23" height="20" viewBox="0 0 23 20" fill="none" xmlns="http://www.w3.org/2000/svg">
<path d="M18.4605 20C17.1895 20 16.1151 19.5606 15.2375 18.6818C14.3599 17.803 13.9211 16.7273 13.9211 15.4545C13.9211 14.1818 14.3599 13.1061 15.2375 12.2273C16.1151 11.3485 17.1895 10.9091 18.4605 10.9091C19.7316 10.9091 20.8059 11.3485 21.6836 12.2273C22.5612 13.1061 23 14.1818 23 15.4545C23 16.7273 22.5612 17.803 21.6836 18.6818C20.8059 19.5606 19.7316 20 18.4605 20ZM18.4605 17.5758C19.0456 17.5758 19.545 17.3687 19.9586 16.9545C20.3721 16.5404 20.5789 16.0404 20.5789 15.4545C20.5789 14.8687 20.3721 14.3687 19.9586 13.9545C19.545 13.5404 19.0456 13.3333 18.4605 13.3333C17.8754 13.3333 17.3761 13.5404 16.9625 13.9545C16.5489 14.3687 16.3421 14.8687 16.3421 15.4545C16.3421 16.0404 16.5489 16.5404 16.9625 16.9545C17.3761 17.3687 17.8754 17.5758 18.4605 17.5758ZM1.81579 16.6667V14.2424H11.5V16.6667H1.81579ZM4.53947 9.09091C3.26842 9.09091 2.19408 8.65152 1.31645 7.77273C0.438816 6.89394 0 5.81818 0 4.54545C0 3.27273 0.438816 2.19697 1.31645 1.31818C2.19408 0.439394 3.26842 0 4.53947 0C5.81053 0 6.88487 0.439394 7.7625 1.31818C8.64013 2.19697 9.07895 3.27273 9.07895 4.54545C9.07895 5.81818 8.64013 6.89394 7.7625 7.77273C6.88487 8.65152 5.81053 9.09091 4.53947 9.09091ZM4.53947 6.66667C5.12456 6.66667 5.6239 6.4596 6.0375 6.04545C6.4511 5.63131 6.65789 5.13131 6.65789 4.54545C6.65789 3.9596 6.4511 3.4596 6.0375 3.04545C5.6239 2.63131 5.12456 2.42424 4.53947 2.42424C3.95439 2.42424 3.45504 2.63131 3.04145 3.04545C2.62785 3.4596 2.42105 3.9596 2.42105 4.54545C2.42105 5.13131 2.62785 5.63131 3.04145 6.04545C3.45504 6.4596 3.95439 6.66667 4.53947 6.66667ZM11.5 5.75758V3.33333H21.1842V5.75758H11.5Z" fill="black"/>
</svg>
