<svg width="21" height="22" viewBox="0 0 21 22" fill="none" xmlns="http://www.w3.org/2000/svg">
<path d="M16.0556 8.84184L20.5 0H12.7222L10.5 4.4044L8.27778 0H0.5L4.97778 8.8969L5.43333 9.7998C4.61111 10.6036 3.97778 11.6056 3.62222 12.7287C3.41111 13.4004 3.3 14.1161 3.3 14.8649C3.3 18.8068 6.52222 22 10.5 22C11.5 22 12.4444 21.8018 13.3 21.4384C13.5222 21.3504 13.7333 21.2513 13.9333 21.1411C16.1778 19.9299 17.7 17.5736 17.7 14.8649C17.7 12.8829 16.8889 11.0881 15.5667 9.7998L16.0556 8.84184ZM14.0444 18.3774C13.0667 19.3353 11.8889 19.8198 10.5 19.8198C9.11111 19.8198 7.93333 19.3353 6.95556 18.3774C5.98889 17.4084 5.5 16.2412 5.5 14.8649C5.5 13.4885 5.98889 12.3213 6.95556 11.3524C7.93333 10.3944 9.11111 9.90991 10.5 9.90991C11.8889 9.90991 13.0667 10.3944 14.0444 11.3524C15.0111 12.3213 15.5 13.4885 15.5 14.8649C15.5 16.2412 15.0111 17.4084 14.0444 18.3774ZM14.1111 2.2022H16.9222L13.7556 8.47848C13.5111 8.34635 13.2667 8.24725 13.0333 8.15916C12.7889 8.08208 12.5333 8.005 12.2778 7.92793L11.7556 6.88188L14.1111 2.2022ZM4.11111 2.2022H6.88889L9.7 7.76276C9.26667 7.7958 8.84444 7.88388 8.43333 7.99399C8.01111 8.11512 7.62222 8.28028 7.25556 8.47848L4.11111 2.2022Z" fill="#664D00"/>
</svg>
