<svg width="110" height="110" viewBox="0 0 110 110" fill="none" xmlns="http://www.w3.org/2000/svg">
<path d="M55 110C24.6715 110 0 85.3285 0 55C0 24.6715 24.6715 0 55 0C85.3285 0 110 24.6715 110 55C110 85.3285 85.3285 110 55 110ZM55 20.433C35.9378 20.433 20.433 35.9378 20.433 55C20.433 74.0622 35.9378 89.567 55 89.567C74.0622 89.567 89.567 74.0622 89.567 55C89.567 35.9378 74.0622 20.433 55 20.433Z" fill="#049347"/>
<path d="M41.1861 41.6227L54.973 54.1168C55.2723 54.3858 55.6888 54.4812 56.0749 54.3641L73.8269 49.0021C74.6859 48.7418 74.9245 47.6442 74.2564 47.0499L60.1095 34.4517C59.8101 34.1827 59.3893 34.0916 59.0032 34.2131L41.6069 39.6792C40.761 39.9438 40.5267 41.0284 41.1818 41.6227H41.1861Z" fill="#049347"/>
<path d="M52.5753 75.7581L70.4531 70.2269C70.8653 70.0967 71.182 69.7584 71.2774 69.3332L75.2555 51.4771C75.4551 50.5747 74.6135 49.7895 73.7285 50.0585L56.0459 55.3988C55.6294 55.5246 55.3171 55.863 55.2173 56.2838L51.0396 74.3308C50.8313 75.2375 51.6816 76.0314 52.5753 75.7581Z" fill="#04632D"/>
<path d="M34.668 62.1995L48.5851 75.0624C49.123 75.5569 49.995 75.2879 50.1555 74.5765L54.4677 55.9395C54.5458 55.6054 54.4373 55.2497 54.1814 55.0198L40.0604 42.222C39.5182 41.7318 38.6505 42.0094 38.4943 42.7209L34.386 61.2885C34.3123 61.6182 34.4207 61.9609 34.668 62.1908V62.1995Z" fill="#1AB55C"/>
</svg>
