<svg width="24" height="24" viewBox="0 0 24 24" fill="none" xmlns="http://www.w3.org/2000/svg">
<path d="M11.5211 5.60205C8.25528 5.60205 5.61133 8.24888 5.61133 11.5118C5.61133 14.7777 8.25816 17.4216 11.5211 17.4216C14.7869 17.4216 17.4309 14.7748 17.4309 11.5118C17.4309 8.246 14.7841 5.60205 11.5211 5.60205ZM11.5211 15.3477C9.40115 15.3477 7.68522 13.6308 7.68522 11.5118C7.68522 9.39283 9.40211 7.67594 11.5211 7.67594C13.6401 7.67594 15.357 9.39283 15.357 11.5118C15.3579 13.6308 13.6411 15.3477 11.5211 15.3477Z" fill="black"/>
<path d="M16.2651 0.0723479C14.1461 -0.0265003 8.89751 -0.0217018 6.7766 0.0723479C4.91288 0.15968 3.26893 0.609775 1.94359 1.93511C-0.271375 4.15008 0.0117344 7.13471 0.0117344 11.5119C0.0117344 15.9917 -0.237785 18.9072 1.94359 21.0886C4.1672 23.3113 7.19502 23.0205 11.5203 23.0205C15.958 23.0205 17.4896 23.0234 19.0587 22.4159C21.1921 21.5877 22.8025 19.6808 22.9599 16.2556C23.0597 14.1357 23.0539 8.88807 22.9599 6.76715C22.7698 2.72397 20.6 0.271964 16.2651 0.0723479ZM19.6192 19.6232C18.1672 21.0752 16.1528 20.9456 11.4925 20.9456C6.69406 20.9456 4.76988 21.0166 3.36585 19.6088C1.74878 17.9994 2.04148 15.4149 2.04148 11.4965C2.04148 6.19422 1.49734 2.37561 6.81882 2.10305C8.04147 2.05987 8.40135 2.04547 11.4791 2.04547L11.5223 2.07426C16.6365 2.07426 20.6489 1.53876 20.8898 6.85928C20.9445 8.07329 20.957 8.43797 20.957 11.5109C20.956 16.2537 21.0462 18.1894 19.6192 19.6232Z" fill="black"/>
<path d="M17.6642 6.74978C18.4269 6.74978 19.0452 6.13149 19.0452 5.36879C19.0452 4.60609 18.4269 3.98779 17.6642 3.98779C16.9015 3.98779 16.2832 4.60609 16.2832 5.36879C16.2832 6.13149 16.9015 6.74978 17.6642 6.74978Z" fill="black"/>
</svg>
