<svg width="22" height="11" viewBox="0 0 22 11" fill="none" xmlns="http://www.w3.org/2000/svg">
<path d="M9.9 11H5.5C3.97833 11 2.68125 10.4637 1.60875 9.39125C0.53625 8.31875 0 7.02167 0 5.5C0 3.97833 0.53625 2.68125 1.60875 1.60875C2.68125 0.53625 3.97833 0 5.5 0H9.9V2.2H5.5C4.58333 2.2 3.80417 2.52083 3.1625 3.1625C2.52083 3.80417 2.2 4.58333 2.2 5.5C2.2 6.41667 2.52083 7.19583 3.1625 7.8375C3.80417 8.47917 4.58333 8.8 5.5 8.8H9.9V11ZM6.6 6.6V4.4H15.4V6.6H6.6ZM12.1 11V8.8H16.5C17.4167 8.8 18.1958 8.47917 18.8375 7.8375C19.4792 7.19583 19.8 6.41667 19.8 5.5C19.8 4.58333 19.4792 3.80417 18.8375 3.1625C18.1958 2.52083 17.4167 2.2 16.5 2.2H12.1V0H16.5C18.0217 0 19.3188 0.53625 20.3913 1.60875C21.4637 2.68125 22 3.97833 22 5.5C22 7.02167 21.4637 8.31875 20.3913 9.39125C19.3188 10.4637 18.0217 11 16.5 11H12.1Z" fill="black"/>
</svg>
