<svg width="8" height="10" viewBox="0 0 8 10" fill="none" xmlns="http://www.w3.org/2000/svg">
<path d="M3.92857 5C4.19866 5 4.42987 4.90208 4.62221 4.70625C4.81455 4.51042 4.91071 4.275 4.91071 4C4.91071 3.725 4.81455 3.48958 4.62221 3.29375C4.42987 3.09792 4.19866 3 3.92857 3C3.65848 3 3.42727 3.09792 3.23493 3.29375C3.0426 3.48958 2.94643 3.725 2.94643 4C2.94643 4.275 3.0426 4.51042 3.23493 4.70625C3.42727 4.90208 3.65848 5 3.92857 5ZM3.92857 8.675C4.92708 7.74167 5.66778 6.89375 6.15067 6.13125C6.63356 5.36875 6.875 4.69167 6.875 4.1C6.875 3.19167 6.59059 2.44792 6.02176 1.86875C5.45294 1.28958 4.75521 1 3.92857 1C3.10193 1 2.4042 1.28958 1.83538 1.86875C1.26656 2.44792 0.982143 3.19167 0.982143 4.1C0.982143 4.69167 1.22359 5.36875 1.70647 6.13125C2.18936 6.89375 2.93006 7.74167 3.92857 8.675ZM3.92857 10C2.61086 8.85833 1.62667 7.79792 0.976004 6.81875C0.325335 5.83958 0 4.93333 0 4.1C0 2.85 0.394903 1.85417 1.18471 1.1125C1.97452 0.370833 2.88914 0 3.92857 0C4.96801 0 5.88263 0.370833 6.67243 1.1125C7.46224 1.85417 7.85714 2.85 7.85714 4.1C7.85714 4.93333 7.53181 5.83958 6.88114 6.81875C6.23047 7.79792 5.24628 8.85833 3.92857 10Z" fill="black"/>
</svg>
