<svg width="45" height="45" viewBox="0 0 45 45" fill="none" xmlns="http://www.w3.org/2000/svg">
<path d="M30 45L15 39.75L3.375 44.25C2.54167 44.5833 1.77083 44.4896 1.0625 43.9688C0.354167 43.4479 0 42.75 0 41.875V6.875C0 6.33333 0.15625 5.85417 0.46875 5.4375C0.78125 5.02083 1.20833 4.70833 1.75 4.5L15 0L30 5.25L41.625 0.75C42.4583 0.416667 43.2292 0.510417 43.9375 1.03125C44.6458 1.55208 45 2.25 45 3.125V38.125C45 38.6667 44.8438 39.1458 44.5312 39.5625C44.2188 39.9792 43.7917 40.2917 43.25 40.5L30 45ZM27.5 38.875V9.625L17.5 6.125V35.375L27.5 38.875ZM32.5 38.875L40 36.375V6.75L32.5 9.625V38.875ZM5 38.25L12.5 35.375V6.125L5 8.625V38.25Z" fill="black"/>
</svg>
