<svg width="43" height="34" viewBox="0 0 43 34" fill="none" xmlns="http://www.w3.org/2000/svg">
<path d="M16.4894 16.5306C14.2221 16.5306 12.2846 15.7268 10.6563 14.0984C9.04855 12.4907 8.22408 10.5326 8.22408 8.26531C8.22408 5.99802 9.02794 4.06051 10.6563 2.43218C12.264 0.824469 14.2221 0 16.4894 0C18.7567 0 20.6942 0.803857 22.3225 2.43218C23.9508 4.06051 24.7547 5.99802 24.7547 8.26531C24.7547 10.5326 23.9508 12.4701 22.3225 14.0984C20.7148 15.7061 18.7567 16.5306 16.4894 16.5306ZM0 33.02V27.2487C0 26.0738 0.309176 25.002 0.906916 24.0333C1.50466 23.0439 2.30851 22.3019 3.29788 21.7866C5.42089 20.7148 7.58512 19.9315 9.79057 19.3956C11.996 18.8597 14.2221 18.5918 16.4894 18.5918C18.7567 18.5918 20.9827 18.8597 23.1882 19.3956C25.3937 19.9315 27.5579 20.7354 29.6809 21.7866C30.6703 22.3019 31.4741 23.0439 32.0719 24.0333C32.6696 25.0226 32.9788 26.0945 32.9788 27.2487V33.02H0ZM4.12235 28.8977H28.8564V27.2487C28.8564 26.8777 28.7534 26.5273 28.5679 26.2181C28.3824 25.909 28.135 25.6616 27.8258 25.4967C25.9708 24.5692 24.0951 23.8684 22.1988 23.4149C20.3026 22.9615 18.4063 22.7141 16.4688 22.7141C14.5313 22.7141 12.635 22.9409 10.7387 23.4149C8.84243 23.889 6.96677 24.5692 5.11171 25.4967C4.80253 25.6616 4.55519 25.909 4.36969 26.2181C4.18418 26.5273 4.08112 26.8777 4.08112 27.2487V28.8977H4.12235ZM16.4894 12.4083C17.623 12.4083 18.5918 11.996 19.3956 11.1922C20.1995 10.3883 20.6117 9.41956 20.6117 8.28592C20.6117 7.15227 20.1995 6.18352 19.3956 5.37966C18.5918 4.5758 17.623 4.16357 16.4894 4.16357C15.3557 4.16357 14.387 4.5758 13.5831 5.37966C12.7793 6.18352 12.367 7.15227 12.367 8.28592C12.367 9.41956 12.7793 10.3883 13.5831 11.1922C14.387 11.996 15.3557 12.4083 16.4894 12.4083Z" fill="#6B6B6B"/>
<path d="M40.9143 7.77078V6.12185H42.3571V3.64844H29.7839V6.12185H31.2268V7.77078C31.2268 8.59525 31.4123 9.35789 31.8039 10.0793C32.0718 10.574 32.4222 11.0068 32.8345 11.3778C32.4222 11.7488 32.0718 12.1817 31.8039 12.6764C31.4123 13.3978 31.2268 14.1604 31.2268 14.9849V16.6338H29.7839V19.1072H42.3571V16.6338H40.9143V14.9849C40.9143 14.1604 40.7288 13.3978 40.3371 12.6764C40.0692 12.1817 39.7188 11.7488 39.3066 11.3778C39.7188 11.0068 40.0692 10.574 40.3371 10.0793C40.7288 9.35789 40.9143 8.59525 40.9143 7.77078ZM33.7002 16.6338V14.9849C33.7002 14.3253 33.9269 13.7688 34.401 13.3153C35.3285 12.3672 36.8125 12.3672 37.7401 13.3153C38.2141 13.7688 38.4409 14.3253 38.4409 14.9849V16.6338H33.7002Z" fill="#6B6B6B"/>
</svg>
