<svg width="45" height="45" viewBox="0 0 45 45" fill="none" xmlns="http://www.w3.org/2000/svg">
<path d="M29.925 33.075L33.075 29.925L24.75 21.6V11.25H20.25V23.4L29.925 33.075ZM22.5 45C19.3875 45 16.4625 44.4094 13.725 43.2281C10.9875 42.0469 8.60625 40.4437 6.58125 38.4187C4.55625 36.3937 2.95312 34.0125 1.77187 31.275C0.590625 28.5375 0 25.6125 0 22.5C0 19.3875 0.590625 16.4625 1.77187 13.725C2.95312 10.9875 4.55625 8.60625 6.58125 6.58125C8.60625 4.55625 10.9875 2.95312 13.725 1.77187C16.4625 0.590625 19.3875 0 22.5 0C25.6125 0 28.5375 0.590625 31.275 1.77187C34.0125 2.95312 36.3937 4.55625 38.4187 6.58125C40.4437 8.60625 42.0469 10.9875 43.2281 13.725C44.4094 16.4625 45 19.3875 45 22.5C45 25.6125 44.4094 28.5375 43.2281 31.275C42.0469 34.0125 40.4437 36.3937 38.4187 38.4187C36.3937 40.4437 34.0125 42.0469 31.275 43.2281C28.5375 44.4094 25.6125 45 22.5 45ZM22.5 40.5C27.4875 40.5 31.7344 38.7469 35.2406 35.2406C38.7469 31.7344 40.5 27.4875 40.5 22.5C40.5 17.5125 38.7469 13.2656 35.2406 9.75937C31.7344 6.25312 27.4875 4.5 22.5 4.5C17.5125 4.5 13.2656 6.25312 9.75937 9.75937C6.25312 13.2656 4.5 17.5125 4.5 22.5C4.5 27.4875 6.25312 31.7344 9.75937 35.2406C13.2656 38.7469 17.5125 40.5 22.5 40.5Z" fill="black"/>
</svg>
