<svg width="45" height="37" viewBox="0 0 45 37" fill="none" xmlns="http://www.w3.org/2000/svg">
<path d="M22.5 30.0625C23.1375 30.0625 23.6719 29.8409 24.1031 29.3977C24.5344 28.9544 24.75 28.4052 24.75 27.75C24.75 27.0948 24.5344 26.5456 24.1031 26.1023C23.6719 25.6591 23.1375 25.4375 22.5 25.4375C21.8625 25.4375 21.3281 25.6591 20.8969 26.1023C20.4656 26.5456 20.25 27.0948 20.25 27.75C20.25 28.4052 20.4656 28.9544 20.8969 29.3977C21.3281 29.8409 21.8625 30.0625 22.5 30.0625ZM22.5 20.8125C23.1375 20.8125 23.6719 20.5909 24.1031 20.1477C24.5344 19.7044 24.75 19.1552 24.75 18.5C24.75 17.8448 24.5344 17.2956 24.1031 16.8523C23.6719 16.4091 23.1375 16.1875 22.5 16.1875C21.8625 16.1875 21.3281 16.4091 20.8969 16.8523C20.4656 17.2956 20.25 17.8448 20.25 18.5C20.25 19.1552 20.4656 19.7044 20.8969 20.1477C21.3281 20.5909 21.8625 20.8125 22.5 20.8125ZM22.5 11.5625C23.1375 11.5625 23.6719 11.3409 24.1031 10.8977C24.5344 10.4544 24.75 9.90521 24.75 9.25C24.75 8.59479 24.5344 8.04557 24.1031 7.60234C23.6719 7.15911 23.1375 6.9375 22.5 6.9375C21.8625 6.9375 21.3281 7.15911 20.8969 7.60234C20.4656 8.04557 20.25 8.59479 20.25 9.25C20.25 9.90521 20.4656 10.4544 20.8969 10.8977C21.3281 11.3409 21.8625 11.5625 22.5 11.5625ZM40.5 37H4.5C3.2625 37 2.20312 36.5471 1.32187 35.6414C0.440625 34.7357 0 33.6469 0 32.375V23.125C1.2375 23.125 2.29687 22.6721 3.17812 21.7664C4.05937 20.8607 4.5 19.7719 4.5 18.5C4.5 17.2281 4.05937 16.1393 3.17812 15.2336C2.29687 14.3279 1.2375 13.875 0 13.875V4.625C0 3.35313 0.440625 2.26432 1.32187 1.35859C2.20312 0.452865 3.2625 0 4.5 0H40.5C41.7375 0 42.7969 0.452865 43.6781 1.35859C44.5594 2.26432 45 3.35313 45 4.625V13.875C43.7625 13.875 42.7031 14.3279 41.8219 15.2336C40.9406 16.1393 40.5 17.2281 40.5 18.5C40.5 19.7719 40.9406 20.8607 41.8219 21.7664C42.7031 22.6721 43.7625 23.125 45 23.125V32.375C45 33.6469 44.5594 34.7357 43.6781 35.6414C42.7969 36.5471 41.7375 37 40.5 37ZM40.5 32.375V26.4781C39.1125 25.6302 38.0156 24.5029 37.2094 23.0961C36.4031 21.6893 36 20.1573 36 18.5C36 16.8427 36.4031 15.3107 37.2094 13.9039C38.0156 12.4971 39.1125 11.3698 40.5 10.5219V4.625H4.5V10.5219C5.8875 11.3698 6.98437 12.4971 7.79062 13.9039C8.59687 15.3107 9 16.8427 9 18.5C9 20.1573 8.59687 21.6893 7.79062 23.0961C6.98437 24.5029 5.8875 25.6302 4.5 26.4781V32.375H40.5Z" fill="black"/>
</svg>
