<svg width="45" height="33" viewBox="0 0 45 33" fill="none" xmlns="http://www.w3.org/2000/svg">
<path d="M36.0487 18.5805V14.4607H31.9288V10.3408H36.0487V6.22097H40.1685V10.3408H44.2884V14.4607H40.1685V18.5805H36.0487ZM16.4794 16.5206C14.2135 16.5206 12.2772 15.7172 10.6498 14.0899C9.04307 12.4831 8.2191 10.5262 8.2191 8.2603C8.2191 5.99438 9.02247 4.05805 10.6498 2.43071C12.2772 0.803371 14.2135 0 16.4794 0C18.7453 0 20.6816 0.803371 22.309 2.43071C23.9363 4.05805 24.7397 5.99438 24.7397 8.2603C24.7397 10.5262 23.9363 12.4625 22.309 14.0899C20.7022 15.6966 18.7453 16.5206 16.4794 16.5206ZM0 33V27.2322C0 26.0581 0.308989 24.9869 0.906367 24.0187C1.50375 23.03 2.30712 22.2884 3.29588 21.7734C5.4176 20.7022 7.58052 19.9195 9.78464 19.3839C11.9888 18.8483 14.2135 18.5805 16.4794 18.5805C18.7453 18.5805 20.97 18.8483 23.1742 19.3839C25.3783 19.9195 27.5412 20.7228 29.6629 21.7734C30.6517 22.2884 31.4551 23.03 32.0524 24.0187C32.6498 25.0075 32.9588 26.0787 32.9588 27.2322V33H0ZM16.4794 12.4007C17.6124 12.4007 18.5805 11.9888 19.3839 11.1854C20.1873 10.382 20.5993 9.41386 20.5993 8.2809C20.5993 7.14794 20.1873 6.17977 19.3839 5.3764C18.5805 4.57303 17.6124 4.16105 16.4794 4.16105C15.3464 4.16105 14.3783 4.57303 13.5749 5.3764C12.7715 6.17977 12.3596 7.14794 12.3596 8.2809C12.3596 9.41386 12.7715 10.382 13.5749 11.1854C14.3783 11.9888 15.3464 12.4007 16.4794 12.4007ZM4.11985 28.8801H28.839V27.2322C28.839 26.8614 28.736 26.5112 28.5506 26.2022C28.3652 25.8933 28.118 25.6461 27.809 25.4813C25.9551 24.5543 24.0805 23.8539 22.1854 23.4007C20.2903 22.9476 18.3951 22.7004 16.4588 22.7004C14.5225 22.7004 12.6273 22.927 10.7322 23.4007C8.83708 23.8745 6.96255 24.5543 5.10861 25.4813C4.79963 25.6461 4.55243 25.8933 4.36704 26.2022C4.18165 26.5112 4.07865 26.8614 4.07865 27.2322V28.8801H4.11985Z" fill="#029347"/>
</svg>
