<svg width="45" height="34" viewBox="0 0 45 34" fill="none" xmlns="http://www.w3.org/2000/svg">
<path d="M26.5909 19.125C24.8864 19.125 23.4375 18.5052 22.2443 17.2656C21.0511 16.026 20.4545 14.5208 20.4545 12.75C20.4545 10.9792 21.0511 9.47396 22.2443 8.23438C23.4375 6.99479 24.8864 6.375 26.5909 6.375C28.2955 6.375 29.7443 6.99479 30.9375 8.23438C32.1307 9.47396 32.7273 10.9792 32.7273 12.75C32.7273 14.5208 32.1307 16.026 30.9375 17.2656C29.7443 18.5052 28.2955 19.125 26.5909 19.125ZM12.2727 25.5C11.1477 25.5 10.1847 25.0839 9.38352 24.2516C8.58239 23.4193 8.18182 22.4188 8.18182 21.25V4.25C8.18182 3.08125 8.58239 2.08073 9.38352 1.24844C10.1847 0.416146 11.1477 0 12.2727 0H40.9091C42.0341 0 42.9972 0.416146 43.7983 1.24844C44.5994 2.08073 45 3.08125 45 4.25V21.25C45 22.4188 44.5994 23.4193 43.7983 24.2516C42.9972 25.0839 42.0341 25.5 40.9091 25.5H12.2727ZM16.3636 21.25H36.8182C36.8182 20.0813 37.2187 19.0807 38.0199 18.2484C38.821 17.4161 39.7841 17 40.9091 17V8.5C39.7841 8.5 38.821 8.08385 38.0199 7.25156C37.2187 6.41927 36.8182 5.41875 36.8182 4.25H16.3636C16.3636 5.41875 15.9631 6.41927 15.1619 7.25156C14.3608 8.08385 13.3977 8.5 12.2727 8.5V17C13.3977 17 14.3608 17.4161 15.1619 18.2484C15.9631 19.0807 16.3636 20.0813 16.3636 21.25ZM38.8636 34H4.09091C2.96591 34 2.00284 33.5839 1.2017 32.7516C0.400568 31.9193 0 30.9188 0 29.75V6.375H4.09091V29.75H38.8636V34Z" fill="black"/>
</svg>
