<svg width="17" height="22" viewBox="0 0 17 22" fill="none" xmlns="http://www.w3.org/2000/svg">
<path d="M5.94524 12.2571L6.86191 9.27143L4.45238 7.33333H7.4381L8.38095 4.4L9.32381 7.33333H12.3095L9.87381 9.27143L10.7905 12.2571L8.38095 10.3976L5.94524 12.2571ZM2.09524 22V13.9071C1.43175 13.1738 0.916667 12.3357 0.55 11.3929C0.183333 10.45 0 9.44604 0 8.38095C0 6.04127 0.811905 4.05952 2.43571 2.43571C4.05952 0.811905 6.04127 0 8.38095 0C10.7206 0 12.7024 0.811905 14.3262 2.43571C15.95 4.05952 16.7619 6.04127 16.7619 8.38095C16.7619 9.44604 16.5786 10.45 16.2119 11.3929C15.8452 12.3357 15.3301 13.1738 14.6667 13.9071V22L8.38095 19.9048L2.09524 22ZM8.38095 14.6667C10.127 14.6667 11.6111 14.0556 12.8333 12.8333C14.0556 11.6111 14.6667 10.127 14.6667 8.38095C14.6667 6.63492 14.0556 5.1508 12.8333 3.92857C11.6111 2.70635 10.127 2.09524 8.38095 2.09524C6.63492 2.09524 5.1508 2.70635 3.92857 3.92857C2.70635 5.1508 2.09524 6.63492 2.09524 8.38095C2.09524 10.127 2.70635 11.6111 3.92857 12.8333C5.1508 14.0556 6.63492 14.6667 8.38095 14.6667ZM4.19048 18.8833L8.38095 17.8095L12.5714 18.8833V15.6357C11.9604 15.9849 11.3012 16.2599 10.594 16.4607C9.88691 16.6615 9.1492 16.7619 8.38095 16.7619C7.6127 16.7619 6.875 16.6615 6.16786 16.4607C5.46071 16.2599 4.80158 15.9849 4.19048 15.6357V18.8833Z" fill="#FCFCFC"/>
</svg>
