<svg width="13" height="10" viewBox="0 0 13 10" fill="none" xmlns="http://www.w3.org/2000/svg">
<path d="M0 9.7561V8.04878C0 7.71341 0.0860119 7.39837 0.258036 7.10366C0.43006 6.80894 0.667857 6.58537 0.971429 6.43293C1.4875 6.1687 2.06935 5.94512 2.71696 5.7622C3.36458 5.57927 4.07798 5.48781 4.85714 5.48781C5.16071 5.48781 5.4567 5.50305 5.74509 5.53354C6.03348 5.56402 6.31429 5.60976 6.5875 5.67073L5.525 6.73781C5.41369 6.71748 5.30491 6.70732 5.19866 6.70732H4.85714C4.13869 6.70732 3.4936 6.7937 2.92188 6.96646C2.35015 7.13923 1.88214 7.32724 1.51786 7.53049C1.42679 7.5813 1.35342 7.65244 1.29777 7.7439C1.24211 7.83537 1.21429 7.93699 1.21429 8.04878V8.53659H5.00893L6.22321 9.7561H0ZM8.22679 10L6.13214 7.89634L6.98214 7.04268L8.22679 8.29268L11.2929 5.21341L12.1429 6.06707L8.22679 10ZM4.85714 4.87805C4.18929 4.87805 3.61756 4.63923 3.14196 4.16159C2.66637 3.68394 2.42857 3.10976 2.42857 2.43902C2.42857 1.76829 2.66637 1.19411 3.14196 0.716463C3.61756 0.238821 4.18929 0 4.85714 0C5.525 0 6.09673 0.238821 6.57232 0.716463C7.04792 1.19411 7.28571 1.76829 7.28571 2.43902C7.28571 3.10976 7.04792 3.68394 6.57232 4.16159C6.09673 4.63923 5.525 4.87805 4.85714 4.87805ZM4.85714 3.65854C5.19107 3.65854 5.47693 3.53913 5.71473 3.3003C5.95253 3.06148 6.07143 2.77439 6.07143 2.43902C6.07143 2.10366 5.95253 1.81657 5.71473 1.57774C5.47693 1.33892 5.19107 1.21951 4.85714 1.21951C4.52321 1.21951 4.23735 1.33892 3.99955 1.57774C3.76176 1.81657 3.64286 2.10366 3.64286 2.43902C3.64286 2.77439 3.76176 3.06148 3.99955 3.3003C4.23735 3.53913 4.52321 3.65854 4.85714 3.65854Z" fill="black"/>
</svg>
