<svg width="17" height="14" viewBox="0 0 17 14" fill="none" xmlns="http://www.w3.org/2000/svg">
<path d="M0 13.6585V11.2683C0 10.7988 0.120417 10.3577 0.36125 9.94512C0.602083 9.53252 0.935 9.21951 1.36 9.0061C2.0825 8.63618 2.89708 8.32317 3.80375 8.06707C4.71042 7.81098 5.70917 7.68293 6.8 7.68293C7.225 7.68293 7.63938 7.70427 8.04313 7.74695C8.44688 7.78963 8.84 7.85366 9.2225 7.93902L7.735 9.43293C7.57917 9.40447 7.42688 9.39024 7.27813 9.39024H6.8C5.79417 9.39024 4.89104 9.51118 4.09063 9.75305C3.29021 9.99492 2.635 10.2581 2.125 10.5427C1.9975 10.6138 1.89479 10.7134 1.81688 10.8415C1.73896 10.9695 1.7 11.1118 1.7 11.2683V11.9512H7.0125L8.7125 13.6585H0ZM11.5175 14L8.585 11.0549L9.775 9.85976L11.5175 11.6098L15.81 7.29878L17 8.4939L11.5175 14ZM6.8 6.82927C5.865 6.82927 5.06458 6.49492 4.39875 5.82622C3.73292 5.15752 3.4 4.35366 3.4 3.41463C3.4 2.47561 3.73292 1.67175 4.39875 1.00305C5.06458 0.33435 5.865 0 6.8 0C7.735 0 8.53542 0.33435 9.20125 1.00305C9.86708 1.67175 10.2 2.47561 10.2 3.41463C10.2 4.35366 9.86708 5.15752 9.20125 5.82622C8.53542 6.49492 7.735 6.82927 6.8 6.82927ZM6.8 5.12195C7.2675 5.12195 7.66771 4.95478 8.00063 4.62043C8.33354 4.28608 8.5 3.88415 8.5 3.41463C8.5 2.94512 8.33354 2.54319 8.00063 2.20884C7.66771 1.87449 7.2675 1.70732 6.8 1.70732C6.3325 1.70732 5.93229 1.87449 5.59938 2.20884C5.26646 2.54319 5.1 2.94512 5.1 3.41463C5.1 3.88415 5.26646 4.28608 5.59938 4.62043C5.93229 4.95478 6.3325 5.12195 6.8 5.12195Z" fill="black"/>
</svg>
