<svg width="44" height="33" viewBox="0 0 44 33" fill="none" xmlns="http://www.w3.org/2000/svg">
<path d="M16.395 16.436C14.1407 16.436 12.2143 15.6367 10.5952 14.0177C8.99674 12.4192 8.17699 10.4723 8.17699 8.21798C8.17699 5.96367 8.97625 4.03726 10.5952 2.41826C12.1938 0.819748 14.1407 0 16.395 0C18.6493 0 20.5757 0.799255 22.1947 2.41826C23.8137 4.03726 24.6129 5.96367 24.6129 8.21798C24.6129 10.4723 23.8137 12.3987 22.1947 14.0177C20.5962 15.6162 18.6493 16.436 16.395 16.436ZM0 32.8309V27.0927C0 25.9245 0.307406 24.8589 0.901723 23.8957C1.49604 22.912 2.2953 22.1742 3.27899 21.6619C5.38985 20.5962 7.54169 19.8174 9.73451 19.2846C11.9273 18.7517 14.1407 18.4853 16.395 18.4853C18.6493 18.4853 20.8626 18.7517 23.0554 19.2846C25.2483 19.8174 27.4001 20.6167 29.5109 21.6619C30.4946 22.1742 31.2939 22.912 31.8882 23.8957C32.4825 24.8794 32.7899 25.945 32.7899 27.0927V32.8309H0ZM4.09874 28.7322H28.6912V27.0927C28.6912 26.7238 28.5887 26.3754 28.4043 26.068C28.2198 25.7606 27.9739 25.5147 27.6665 25.3507C25.8221 24.4285 23.9572 23.7317 22.0717 23.2809C20.1863 22.83 18.3009 22.5841 16.3745 22.5841C14.4481 22.5841 12.5626 22.8095 10.6772 23.2809C8.7918 23.7522 6.92687 24.4285 5.08244 25.3507C4.77503 25.5147 4.52911 25.7606 4.34467 26.068C4.16022 26.3754 4.05775 26.7238 4.05775 27.0927V28.7322H4.09874ZM16.395 12.3372C17.5221 12.3372 18.4853 11.9273 19.2846 11.1281C20.0838 10.3288 20.4937 9.36563 20.4937 8.23847C20.4937 7.11132 20.0838 6.14811 19.2846 5.34886C18.4853 4.5496 17.5221 4.13973 16.395 4.13973C15.2678 4.13973 14.3046 4.5496 13.5054 5.34886C12.7061 6.14811 12.2962 7.11132 12.2962 8.23847C12.2962 9.36563 12.7061 10.3288 13.5054 11.1281C14.3046 11.9273 15.2678 12.3372 16.395 12.3372Z" fill="#FF5800"/>
<path d="M43.3652 8.095C42.9348 7.1113 42.3405 6.25057 41.6027 5.51279C40.8854 4.77502 40.0042 4.1807 39.0205 3.77083C37.0326 2.91009 34.6349 2.91009 32.647 3.77083C31.6633 4.20119 30.782 4.77502 30.0443 5.51279C29.327 6.23007 28.7327 7.1113 28.3023 8.095C27.8719 9.09919 27.667 10.1649 27.667 11.292C27.667 12.4192 27.8719 13.4848 28.3023 14.4685C28.7327 15.4727 29.327 16.3335 30.0443 17.0712C30.782 17.809 31.6633 18.3828 32.647 18.8132C33.6307 19.2436 34.6963 19.4485 35.8235 19.4485C36.9506 19.4485 38.0368 19.2436 39.0205 18.8132C40.0042 18.3828 40.8854 17.809 41.6027 17.0712C42.3405 16.3335 42.9348 15.4727 43.3652 14.4685C43.7751 13.4848 44.0005 12.4192 44.0005 11.292C44.0005 10.1649 43.7751 9.09919 43.3652 8.095ZM40.1682 7.68513C40.5166 8.11549 40.8035 8.60734 41.0289 9.11969C41.2953 9.81647 41.4388 10.5542 41.4388 11.292C41.4388 12.87 40.9059 14.1816 39.8198 15.2678C38.7336 16.354 37.422 16.9073 35.8235 16.9073C34.225 16.9073 32.9544 16.3745 31.8477 15.2678C30.741 14.1816 30.2082 12.87 30.2082 11.292C30.2082 9.714 30.741 8.40241 31.8477 7.31624C32.8314 6.33254 33.9586 5.7997 35.3111 5.69724V12.5216L40.1682 7.68513Z" fill="#FF5800"/>
</svg>
