<svg width="45" height="26" viewBox="0 0 45 26" fill="none" xmlns="http://www.w3.org/2000/svg">
<path d="M13.2353 11.7V3.9C13.2353 1.74954 11.4542 0 9.26471 0H6.61765C4.42835 0 2.64706 1.74954 2.64706 3.9V11.7H13.2353Z" fill="black"/>
<path d="M27.7941 11.7V3.9C27.7941 1.74954 26.013 0 23.8235 0H21.1765C18.9872 0 17.2059 1.74954 17.2059 3.9V11.7H27.7941Z" fill="black"/>
<path d="M42.3529 11.7V3.9C42.3529 1.74954 40.5718 0 38.3824 0H35.7353C33.5458 0 31.7647 1.74954 31.7647 3.9V11.7H42.3529Z" fill="black"/>
<path d="M45 19.5V16.9C45 15.4641 43.8148 14.3 42.3529 14.3H2.64706C1.18518 14.3 0 15.4641 0 16.9V19.5H6.61765V23.4H3.97059V26H11.9118V23.4H9.26471V19.5H21.1765V23.4H18.5294V26H26.4706V23.4H23.8235V19.5H35.7353V23.4H33.0882V26H41.0294V23.4H38.3824V19.5H45Z" fill="black"/>
</svg>
