<svg width="45" height="33" viewBox="0 0 45 33" fill="none" xmlns="http://www.w3.org/2000/svg">
<path d="M38.4414 17.1503C38.7647 17.1503 39.0277 16.8878 39.0277 16.565C39.0277 16.2422 38.7647 15.9797 38.4414 15.9797C38.1182 15.9797 37.8553 16.2423 37.8553 16.565C37.8553 16.8878 38.1183 17.1503 38.4414 17.1503Z" fill="black"/>
<path d="M38.4414 9.48539C39.0829 9.48539 39.6047 8.96424 39.6047 8.32372V6.67021H37.2781V8.32364C37.2781 8.96424 37.8 9.48539 38.4414 9.48539Z" fill="black"/>
<path d="M38.4414 19.0812C37.8 19.0812 37.2781 19.6024 37.2781 20.2429C37.2781 20.8834 37.8 21.4045 38.4414 21.4045C39.0829 21.4045 39.6047 20.8834 39.6047 20.2429C39.6047 19.6024 39.0829 19.0812 38.4414 19.0812Z" fill="black"/>
<path d="M41.5383 6.67021V8.32364C41.5383 10.0288 40.1491 11.4162 38.4414 11.4162C36.7338 11.4162 35.3445 10.0288 35.3445 8.32364V6.67021H31.2636V26.36H45V6.67021H41.5383ZM38.4414 23.3354C36.7338 23.3354 35.3445 21.9481 35.3445 20.2429C35.3445 19.3425 35.732 18.531 36.349 17.9653C36.0793 17.5648 35.9217 17.0829 35.9217 16.565C35.9217 15.1776 37.052 14.0489 38.4414 14.0489C39.8309 14.0489 40.9612 15.1776 40.9612 16.565C40.9612 17.083 40.8035 17.5648 40.5337 17.9654C41.1507 18.5311 41.5383 19.3426 41.5383 20.243C41.5383 21.9481 40.1491 23.3354 38.4414 23.3354Z" fill="black"/>
<path d="M6.47271 13.6525C5.83128 13.6525 5.30939 14.1737 5.30939 14.8142V18.216C5.30939 18.8565 5.83128 19.3777 6.47271 19.3777C7.11413 19.3777 7.63603 18.8565 7.63603 18.216V14.8142C7.63603 14.1737 7.11413 13.6525 6.47271 13.6525Z" fill="black"/>
<path d="M0 6.67021V26.36H13.6075V6.67021H0ZM9.56962 18.216C9.56962 19.9212 8.18033 21.3085 6.47271 21.3085C4.76508 21.3085 3.37579 19.9212 3.37579 18.216V14.8142C3.37579 13.109 4.76508 11.7217 6.47271 11.7217C8.18033 11.7217 9.56962 13.109 9.56962 14.8142V18.216Z" fill="black"/>
<path d="M16.2442 6.67021V26.36H28.6269V6.67021H16.2442ZM25.5969 18.216C25.5969 19.9212 24.2076 21.3085 22.5 21.3085C20.7924 21.3085 19.4031 19.9212 19.4031 18.216V14.8142C19.4031 13.109 20.7924 11.7217 22.5 11.7217C24.2076 11.7217 25.5969 13.109 25.5969 14.8142V18.216Z" fill="black"/>
<path d="M22.5 13.6525C21.8586 13.6525 21.3367 14.1737 21.3367 14.8142V18.216C21.3367 18.8565 21.8586 19.3777 22.5 19.3777C23.1414 19.3777 23.6633 18.8565 23.6633 18.216V14.8142C23.6633 14.1737 23.1415 13.6525 22.5 13.6525Z" fill="black"/>
<path d="M43.6816 33H1.31836C0.590273 33 0 32.4106 0 31.6835V28.993H45V31.6835C45 32.4106 44.4097 33 43.6816 33Z" fill="black"/>
<path d="M45 4.03723H0V1.31649C0 0.589436 0.590273 0 1.31836 0H43.6816C44.4097 0 45 0.589436 45 1.31649V4.03723Z" fill="black"/>
</svg>
