<svg width="36" height="45" viewBox="0 0 36 45" fill="none" xmlns="http://www.w3.org/2000/svg">
<path d="M18 22.5C19.2375 22.5 20.2969 22.0594 21.1781 21.1781C22.0594 20.2969 22.5 19.2375 22.5 18C22.5 16.7625 22.0594 15.7031 21.1781 14.8219C20.2969 13.9406 19.2375 13.5 18 13.5C16.7625 13.5 15.7031 13.9406 14.8219 14.8219C13.9406 15.7031 13.5 16.7625 13.5 18C13.5 19.2375 13.9406 20.2969 14.8219 21.1781C15.7031 22.0594 16.7625 22.5 18 22.5ZM18 39.0375C22.575 34.8375 25.9687 31.0219 28.1812 27.5906C30.3937 24.1594 31.5 21.1125 31.5 18.45C31.5 14.3625 30.1969 11.0156 27.5906 8.40937C24.9844 5.80312 21.7875 4.5 18 4.5C14.2125 4.5 11.0156 5.80312 8.40937 8.40937C5.80312 11.0156 4.5 14.3625 4.5 18.45C4.5 21.1125 5.60625 24.1594 7.81875 27.5906C10.0312 31.0219 13.425 34.8375 18 39.0375ZM18 45C11.9625 39.8625 7.45312 35.0906 4.47187 30.6844C1.49062 26.2781 0 22.2 0 18.45C0 12.825 1.80937 8.34375 5.42812 5.00625C9.04687 1.66875 13.2375 0 18 0C22.7625 0 26.9531 1.66875 30.5719 5.00625C34.1906 8.34375 36 12.825 36 18.45C36 22.2 34.5094 26.2781 31.5281 30.6844C28.5469 35.0906 24.0375 39.8625 18 45Z" fill="black"/>
</svg>
