<svg width="24" height="20" viewBox="0 0 24 20" fill="none" xmlns="http://www.w3.org/2000/svg">
<path d="M19.0947 10.3497C18.701 10.0989 18.2596 9.8958 17.7714 9.74026C17.6685 9.70552 17.5956 9.67972 17.5527 9.66237C17.5099 9.64507 17.4583 9.61274 17.3986 9.56514C17.3385 9.5175 17.3191 9.46342 17.3408 9.40297C17.3623 9.34248 17.3814 9.2561 17.3986 9.14375C17.7838 8.14973 17.7838 7.38042 17.3986 6.83586C17.0042 6.3086 16.3493 6.04488 15.4324 6.04488C14.5159 6.04488 13.4623 6.29997 12.2718 6.80988L12.1944 6.83586C12.1434 6.85316 12.0854 6.8681 12.0213 6.88118C11.9569 6.89426 11.8948 6.8963 11.8348 6.88772C11.7751 6.87918 11.7322 6.84894 11.7064 6.79703C11.6807 6.74512 11.6851 6.6587 11.7194 6.53767C12.1047 5.28425 12.0191 4.38105 11.4623 3.82773C10.8284 3.18812 9.77273 3.15787 8.29495 3.73704C6.81757 4.31634 5.35496 5.33624 3.90715 6.79721C2.81074 7.90358 1.96478 9.01868 1.36946 10.1424C0.77409 11.2663 0.476562 12.3249 0.476562 13.3191C0.476562 14.2526 0.754963 15.1148 1.31163 15.9059C1.86856 16.6969 2.60295 17.3495 3.51534 17.8638C4.4275 18.3779 5.45766 18.7801 6.60546 19.0696C7.75331 19.359 8.93122 19.5039 10.139 19.5039C11.3469 19.5039 12.5054 19.3701 13.6146 19.1021C14.7238 18.834 15.6919 18.4755 16.5183 18.0259C17.3451 17.5766 18.0668 17.0687 18.6835 16.5023C19.3004 15.9362 19.7671 15.3444 20.0842 14.726C20.4012 14.1081 20.5598 13.505 20.5598 12.9175C20.5598 12.3643 20.4144 11.8605 20.1229 11.4068C19.8318 10.9525 19.489 10.6004 19.0947 10.3497ZM14.8998 16.2954C13.6449 17.3196 12.0623 17.9311 10.1521 18.1299C8.90143 18.251 7.72568 18.1602 6.62504 17.8576C5.52435 17.5549 4.63123 17.084 3.94603 16.4443C3.26074 15.8044 2.87955 15.0696 2.80246 14.2397C2.68243 12.9778 3.25003 11.8347 4.50495 10.8104C5.75987 9.78585 7.34251 9.17436 9.25269 8.97558C10.5034 8.85442 11.679 8.94533 12.7795 9.24788C13.8801 9.55038 14.7734 10.0215 15.4587 10.6611C16.1441 11.3009 16.5251 12.0357 16.6021 12.8655C16.7219 14.1277 16.1547 15.2707 14.8998 16.2954Z" fill="black"/>
<path d="M10.5256 10.921C9.61766 10.6875 8.71604 10.7699 7.82089 11.1674C6.92565 11.565 6.27691 12.1655 5.87425 12.9696C5.47163 13.7905 5.44369 14.601 5.79067 15.4006C6.13766 16.2002 6.7693 16.7469 7.68592 17.041C8.63669 17.352 9.59624 17.3002 10.5641 16.8851C11.5321 16.4701 12.2087 15.8218 12.5945 14.9403C12.9797 14.0757 12.969 13.2525 12.5622 12.4701C12.155 11.6881 11.4764 11.1717 10.5256 10.921ZM9.15069 15.1219C8.96221 15.4157 8.69457 15.6211 8.34745 15.7377C8.00055 15.8546 7.68124 15.8437 7.39015 15.7054C7.09897 15.567 6.91481 15.3488 6.83771 15.0505C6.76057 14.7525 6.81625 14.4566 7.00468 14.1626C7.18448 13.8771 7.44154 13.6785 7.77557 13.5662C8.10978 13.4538 8.42238 13.4581 8.71365 13.5791C9.01347 13.7086 9.20636 13.9249 9.29201 14.2273C9.37761 14.5298 9.33058 14.8279 9.15069 15.1219ZM10.3584 13.5527C10.2985 13.6652 10.2042 13.7453 10.0758 13.7928C9.94728 13.8404 9.82298 13.8424 9.70313 13.7994C9.44624 13.6781 9.39057 13.4839 9.53612 13.2159C9.59606 13.1034 9.68814 13.0235 9.81227 12.9758C9.93639 12.9283 10.0584 12.9262 10.1784 12.9695C10.2898 13.0125 10.3647 13.0927 10.4034 13.2094C10.4419 13.3258 10.427 13.4407 10.3584 13.5527Z" fill="black"/>
<path d="M18.8381 7.86714C18.9327 8.05302 19.078 8.18045 19.2752 8.24966C19.4723 8.31015 19.6627 8.29294 19.8469 8.19775C20.0311 8.10279 20.1575 7.95583 20.2261 7.75692C20.3887 7.27299 20.4167 6.76499 20.3092 6.23351C20.2024 5.70198 19.9689 5.23295 19.6094 4.82668C19.2497 4.42036 18.8167 4.13725 18.3115 3.97725C17.8061 3.81735 17.2964 3.79365 16.7826 3.906C16.5767 3.94928 16.4183 4.05954 16.3069 4.2367C16.1957 4.41382 16.1615 4.60619 16.2045 4.8136C16.2387 5.02109 16.3456 5.181 16.5253 5.29335C16.7053 5.4057 16.898 5.44026 17.1038 5.39717C17.6436 5.28477 18.1015 5.43609 18.4787 5.85094C18.8557 6.26575 18.9582 6.74551 18.787 7.29015C18.7266 7.48893 18.744 7.6813 18.8381 7.86714Z" fill="black"/>
<path d="M23.3792 5.59811C23.1605 4.50477 22.6789 3.54308 21.9336 2.71332C21.1882 1.87498 20.2974 1.29364 19.2605 0.969291C18.2241 0.645081 17.1794 0.595444 16.1254 0.820152C15.8855 0.87206 15.6991 0.999492 15.5663 1.20272C15.4336 1.40599 15.3929 1.62847 15.4445 1.87053C15.4958 2.11259 15.6241 2.30056 15.83 2.43453C16.0353 2.5685 16.2582 2.6096 16.4978 2.55769C17.2432 2.40219 17.9843 2.43898 18.7209 2.66795C19.4576 2.89702 20.0916 3.30965 20.6228 3.90612C21.1537 4.49396 21.4967 5.17671 21.6509 5.95479C21.8052 6.73264 21.7624 7.47606 21.5224 8.18484C21.454 8.41836 21.4753 8.64306 21.5868 8.85919C21.698 9.07527 21.8693 9.22214 22.1006 9.30002C22.332 9.37763 22.5546 9.36047 22.7687 9.24811C22.983 9.13576 23.1286 8.96291 23.2058 8.72949C23.5398 7.73542 23.5975 6.69163 23.3792 5.59811Z" fill="black"/>
</svg>
