<svg width="23" height="17" viewBox="0 0 23 17" fill="none" xmlns="http://www.w3.org/2000/svg">
<path d="M22.5324 2.86495C22.2707 1.8871 21.5036 1.11628 20.5308 0.852973C18.7537 0.364258 11.6449 0.364258 11.6449 0.364258C11.6449 0.364258 4.53644 0.364258 2.75929 0.834444C1.80522 1.09747 1.01942 1.88724 0.757719 2.86495C0.290039 4.65096 0.290039 8.35491 0.290039 8.35491C0.290039 8.35491 0.290039 12.0775 0.757719 13.8449C1.0197 14.8226 1.7865 15.5934 2.75943 15.8567C4.55516 16.3456 11.6452 16.3456 11.6452 16.3456C11.6452 16.3456 18.7537 16.3456 20.5308 15.8754C21.5038 15.6122 22.2707 14.8414 22.5327 13.8637C23.0002 12.0775 23.0002 8.37372 23.0002 8.37372C23.0002 8.37372 23.0189 4.65096 22.5324 2.86495ZM9.38165 11.7768V4.93307L15.2929 8.35491L9.38165 11.7768Z" fill="black"/>
</svg>
