<svg width="87" height="89" viewBox="0 0 87 89" fill="none" xmlns="http://www.w3.org/2000/svg">
<path d="M14.6116 16.43L43.5016 42.61C44.1216 43.18 45.0016 43.37 45.8116 43.13L83.0016 31.9C84.8016 31.36 85.3015 29.06 83.9015 27.81L54.2716 1.41996C53.6416 0.859964 52.7616 0.669964 51.9516 0.919964L15.5116 12.37C13.7416 12.93 13.2416 15.19 14.6216 16.44L14.6116 16.43Z" fill="#FFD313"/>
<path d="M39.2215 87.94L76.6814 76.35C77.5514 76.08 78.2114 75.37 78.4014 74.48L86.7415 37.07C87.1615 35.18 85.3914 33.54 83.5414 34.1L46.5014 45.29C45.6314 45.55 44.9715 46.26 44.7715 47.14L36.0215 84.95C35.5815 86.85 37.3714 88.52 39.2314 87.94H39.2215Z" fill="#CEA705"/>
<path d="M1.24165 59.5699L30.4017 86.5199C31.5217 87.5599 33.3517 86.9999 33.6917 85.5099L42.7217 46.4699C42.8817 45.7699 42.6516 45.0299 42.1217 44.5399L12.5416 17.7299C11.4116 16.6999 9.59167 17.2799 9.26167 18.7799L0.651681 57.6799C0.501681 58.3699 0.721647 59.0899 1.24165 59.5699Z" fill="#FFDE55"/>
</svg>
