<svg width="33" height="44" viewBox="0 0 33 44" fill="none" xmlns="http://www.w3.org/2000/svg">
<path d="M15.5867 43.1859L15.589 43.1893C15.8687 43.5948 16.4867 43.6143 16.7728 43.1834L29.1361 24.9364C36.1854 14.5399 28.7361 0.5 16.1789 0.5C3.62151 0.5 -3.82294 14.5401 3.22165 24.9362C3.22165 24.9363 3.22165 24.9363 3.22166 24.9363L15.5867 43.1859Z" fill="#FF5800" stroke="#7A2B00"/>
<path d="M16.1801 22.0027C19.5814 22.0027 22.3387 19.2454 22.3387 15.8441C22.3387 12.4428 19.5814 9.68555 16.1801 9.68555C12.7788 9.68555 10.0215 12.4428 10.0215 15.8441C10.0215 19.2454 12.7788 22.0027 16.1801 22.0027Z" fill="#FFD5BD"/>
</svg>
